
        <svg xmlns="http://www.w3.org/2000/svg" xmlns:xlink="http://www.w3.org/1999/xlink" version="1.1" width="3200" height="788.9780910048266" viewBox="0 0 3200 788.9780910048266">
			
			<g transform="scale(10) translate(10, 10)">
				<defs id="SvgjsDefs2114"/><g id="SvgjsG2115" featureKey="ujU5uU-0" transform="matrix(4.305395606178758,0,0,4.305395606178758,-2.497127070135457,-27.812855780152585)" fill="#fff"><path d="M0.58 20 l0 -0.3 l0.6 0 c0.88 0 1.2 -0.44 1.2 -1.2 l0 -11.42 l-1.72 0 l0 -0.3 l4.34 0 l3.8 10.02 l3.56 -10.02 l4.22 0 l0 0.3 l-1.74 0 l0 12.62 l1.74 0 l0 0.3 l-5.96 0 l0 -0.3 l1.78 0 l0 -12.12 l-4.42 12.42 l-0.54 0 l-4.76 -12.44 l0 10.94 c0 0.76 0.3 1.2 1.18 1.2 l0.62 0 l0 0.3 l-3.9 0 z M17.62 20 l0 -0.3 l1.32 0 l0 -8.4 l-1.32 0 l0 -0.3 l3.56 0 l0 8.7 l1.32 0 l0 0.3 l-4.88 0 z M18.7 7.720000000000001 c0 -0.7 0.58 -1.26 1.28 -1.26 c0.68 0 1.24 0.56 1.24 1.26 c0 0.68 -0.56 1.26 -1.24 1.26 c-0.7 0 -1.28 -0.58 -1.28 -1.26 z M24.32 17.4 l0 -6.1 l-1.32 0 l0 -0.3 l3.56 0 l0 6.88 c0 1.28 0.32 1.78 1.24 1.78 c1.9 0 2.62 -2.2 2.62 -3.28 l0 -5.08 l-1.32 0 l0 -0.3 l3.56 0 l0 8.7 l1.32 0 l0 0.3 l-3.52 0 l0 -2.12 l-0.04 0 c-0.24 0.6 -0.96 2.26 -3.28 2.26 c-1.92 0 -2.82 -0.86 -2.82 -2.74 z M34.68 20 l0 -0.3 l1.32 0 l0 -8.4 l-1.32 0 l0 -0.3 l3.52 0 l0 2.12 l0.04 0 c0.24 -0.6 0.96 -2.26 3.28 -2.26 c1.82 0 2.64 0.78 2.78 2.26 l0.04 0 c0.24 -0.6 0.96 -2.26 3.28 -2.26 c1.92 0 2.82 0.86 2.82 2.74 l0 6.1 l1.34 0 l0 0.3 l-4.76 0 l0 -0.3 l1.18 0 l0 -6.58 c0 -1.28 -0.32 -1.78 -1.24 -1.78 c-1.86 0 -2.6 2.12 -2.62 3.22 l0 5.14 l1.26 0 l0 0.3 l-4.68 0 l0 -0.3 l1.18 0 l0 -6.58 c0 -1.28 -0.32 -1.78 -1.24 -1.78 c-1.9 0 -2.62 2.2 -2.62 3.28 l0 5.08 l1.2 0 l0 0.3 l-4.76 0 z M55.08 15.26 l0 0.3 c0 3.54 0.84 4.26 2.3 4.26 c1.48 0 2.86 -0.94 2.86 -2.44 l0.3 0 c-0.02 1.2 -0.72 2.02 -1.74 2.46 c-0.52 0.22 -1.02 0.3 -1.64 0.3 c-2.62 0 -4.44 -1.26 -4.44 -4.64 c0 -3.3 1.74 -4.64 4.28 -4.64 c2.36 0 3.74 1.18 3.74 3.6 l0 0.8 l-5.66 0 z M55.1 14.96 l3.42 0 l0 -0.94 c0 -1.88 -0.36 -2.9 -1.56 -2.9 c-1.3 0 -1.8 1.06 -1.86 3.84 z M64.60000000000001 15.26 l0 0.3 c0 3.54 0.84 4.26 2.3 4.26 c1.48 0 2.86 -0.94 2.86 -2.44 l0.3 0 c-0.02 1.2 -0.72 2.02 -1.74 2.46 c-0.52 0.22 -1.02 0.3 -1.64 0.3 c-2.62 0 -4.44 -1.26 -4.44 -4.64 c0 -3.3 1.74 -4.64 4.28 -4.64 c2.36 0 3.74 1.18 3.74 3.6 l0 0.8 l-5.66 0 z M64.62 14.96 l3.42 0 l0 -0.94 c0 -1.88 -0.36 -2.9 -1.56 -2.9 c-1.3 0 -1.8 1.06 -1.86 3.84 z"/></g>
			</g>
		</svg>
	